<?xml version="1.0" standalone="no"?>
<!DOCTYPE svg PUBLIC "-//W3C//DTD SVG 20010904//EN"
 "http://www.w3.org/TR/2001/REC-SVG-20010904/DTD/svg10.dtd">
<svg version="1.0" xmlns="http://www.w3.org/2000/svg"
 width="512.000000pt" height="512.000000pt" viewBox="0 0 512.000000 512.000000"
 preserveAspectRatio="xMidYMid meet">
<metadata>
Created by potrace 1.14, written by Peter Selinger 2001-2017
</metadata>
<g transform="translate(0.000000,512.000000) scale(0.100000,-0.100000)"
fill="#000000" stroke="none">
<path d="M2602 4965 c-139 -34 -244 -102 -343 -221 l-26 -32 -149 -5 c-82 -2
-158 -7 -169 -10 -113 -32 -167 -62 -234 -126 -64 -62 -94 -112 -115 -195 -33
-125 13 -262 118 -354 l36 -32 1 -560 c1 -625 1 -625 72 -775 48 -101 103
-174 214 -282 l94 -93 -18 -24 c-42 -56 -108 -82 -231 -90 -188 -13 -332 -49
-467 -116 -151 -75 -257 -181 -316 -315 l-20 -44 -432 -3 c-403 -3 -435 -4
-471 -22 -124 -62 -178 -211 -120 -337 27 -58 66 -98 123 -126 27 -13 67 -18
168 -21 l133 -4 41 -78 c66 -123 155 -234 259 -322 l44 -38 -60 0 c-105 0
-187 -54 -224 -148 -8 -21 -13 -78 -12 -157 0 -137 14 -184 70 -233 67 -59 77
-61 358 -62 277 -1 282 0 307 50 12 24 17 25 105 25 69 0 92 -3 92 -13 0 -7
11 -24 25 -37 l24 -25 418 0 c230 0 435 5 457 9 50 12 105 57 135 111 18 32
25 61 27 114 1 39 3 76 3 81 1 7 298 10 876 10 l876 0 10 -40 c23 -85 76 -151
147 -181 43 -19 234 -27 309 -13 150 28 273 146 308 294 8 33 12 127 10 260
-1 187 -4 216 -22 263 -41 103 -123 184 -230 228 l-58 23 -2 530 -2 531 42 1
c157 1 247 51 309 169 23 45 23 49 26 436 3 373 2 393 -17 445 -28 73 -83 132
-156 166 l-60 28 -220 -1 c-214 0 -221 -1 -275 -25 -67 -31 -120 -82 -151
-146 -24 -48 -24 -48 -24 -448 l0 -400 28 -57 c52 -105 135 -158 264 -166 l83
-5 0 -528 0 -529 -55 0 c-30 0 -58 -1 -62 -2 -6 -3 -36 102 -47 162 -2 14 -14
66 -26 115 -55 220 -154 357 -331 459 -49 28 -195 85 -239 92 -14 3 -41 9 -60
14 -39 10 -93 17 -190 25 -124 11 -148 16 -193 45 -82 52 -81 57 26 163 146
143 221 271 274 467 4 14 8 278 10 586 l4 561 55 57 c80 83 109 149 109 256 0
76 -3 92 -33 152 -18 36 -55 89 -83 117 -53 53 -164 114 -229 126 -19 3 -44 8
-55 10 -11 2 -78 4 -150 4 l-130 1 -23 40 c-52 92 -127 154 -239 197 -80 30
-234 39 -321 18z"/>
<path d="M1205 3159 c-83 -76 -110 -177 -74 -273 10 -28 28 -69 39 -91 28 -55
25 -88 -9 -128 -53 -59 -53 -115 0 -143 38 -19 60 -12 105 34 86 89 96 189 31
323 -45 95 -43 109 21 180 45 51 23 123 -41 135 -21 3 -36 -4 -72 -37z"/>
<path d="M779 2748 c-98 -105 -107 -185 -39 -333 39 -86 39 -113 -6 -166 -29
-35 -35 -48 -30 -73 14 -73 85 -87 140 -29 90 96 102 190 40 316 -49 99 -48
129 10 189 36 37 40 67 16 106 -16 26 -26 32 -56 32 -29 0 -43 -8 -75 -42z"/>
</g>
</svg>
